<svg width="132" height="72" viewBox="0 0 132 72" fill="none" xmlns="http://www.w3.org/2000/svg">
<circle cx="67" cy="23" r="23" fill="#FF5C58"/>
<path d="M41.5592 46.504C39.0952 45.672 36.8712 44.344 34.8872 42.52C32.9352 40.728 31.1592 38.664 29.5592 36.328C27.9912 33.992 26.6152 31.496 25.4312 28.84C24.2472 26.152 23.2232 23.512 22.3592 20.92C21.4952 23.512 20.4712 26.152 19.2872 28.84C18.1032 31.496 16.7112 33.992 15.1112 36.328C13.5432 38.664 11.7672 40.728 9.7832 42.52C7.7992 44.344 5.5912 45.672 3.1592 46.504L0.231201 39.448C2.1512 38.456 4.0392 36.968 5.8952 34.984C6.6952 34.12 7.5272 33.112 8.3912 31.96C9.2552 30.808 10.1192 29.48 10.9832 27.976C11.8472 26.44 12.6792 24.728 13.4792 22.84C14.3112 20.92 15.0792 18.776 15.7832 16.408H7.1432V8.77599H17.6072C17.8952 7.39998 18.1352 5.95998 18.3272 4.45598H26.3912L27.1112 8.77599H37.4792V16.408H28.9832C29.6872 18.776 30.4392 20.92 31.2392 22.84C32.0712 24.728 32.9032 26.44 33.7352 27.976C34.5992 29.48 35.4632 30.808 36.3272 31.96C37.1912 33.112 38.0232 34.12 38.8232 34.984C40.6792 36.968 42.5672 38.456 44.4872 39.448L41.5592 46.504ZM18.4232 40.168V32.488H26.2472V40.168H18.4232Z" fill="#141414"/>
<path d="M75.4862 35.992V25.432H52.8302V12.04H47.4062V4.35999H83.1662V12.04H60.5102V17.8H83.1662V35.992H75.4862ZM80.1422 46.552C77.0062 45.976 73.8542 45.048 70.6862 43.768C69.3422 43.224 67.9182 42.584 66.4142 41.848C64.9102 41.112 63.3902 40.264 61.8542 39.304C60.3182 38.344 58.7822 37.272 57.2462 36.088C55.7102 34.872 54.2542 33.512 52.8782 32.008L60.4142 28.168C61.7582 29.704 63.4542 31.176 65.5022 32.584C67.2622 33.8 69.4862 35.016 72.1742 36.232C74.8942 37.448 78.1582 38.424 81.9662 39.16L80.1422 46.552Z" fill="#141414"/>
<path d="M98.4651 46.504V13.816H106.097V46.504H98.4651ZM107.633 40.072C108.945 38.824 110.465 37.64 112.193 36.52C113.633 35.56 115.377 34.584 117.425 33.592C119.473 32.568 121.761 31.768 124.289 31.192V12.088H92.7531V4.45598H131.969V36.328H131.585L131.681 36.376C129.569 36.824 127.393 37.48 125.153 38.344C123.233 39.08 121.137 40.104 118.865 41.416C116.593 42.76 114.401 44.456 112.289 46.504L107.633 40.072Z" fill="#141414"/>
<mask id="mask0_36_182" style="mask-type:alpha" maskUnits="userSpaceOnUse" x="44" y="0" width="46" height="46">
<circle cx="67" cy="23" r="23" fill="#FF5C58"/>
</mask>
<g mask="url(#mask0_36_182)">
<path d="M41.5592 46.504C39.0952 45.672 36.8712 44.344 34.8872 42.52C32.9352 40.728 31.1592 38.664 29.5592 36.328C27.9912 33.992 26.6152 31.496 25.4312 28.84C24.2472 26.152 23.2232 23.512 22.3592 20.92C21.4952 23.512 20.4712 26.152 19.2872 28.84C18.1032 31.496 16.7112 33.992 15.1112 36.328C13.5432 38.664 11.7672 40.728 9.7832 42.52C7.7992 44.344 5.5912 45.672 3.1592 46.504L0.231201 39.448C2.1512 38.456 4.0392 36.968 5.8952 34.984C6.6952 34.12 7.5272 33.112 8.3912 31.96C9.2552 30.808 10.1192 29.48 10.9832 27.976C11.8472 26.44 12.6792 24.728 13.4792 22.84C14.3112 20.92 15.0792 18.776 15.7832 16.408H7.1432V8.77599H17.6072C17.8952 7.39998 18.1352 5.95998 18.3272 4.45598H26.3912L27.1112 8.77599H37.4792V16.408H28.9832C29.6872 18.776 30.4392 20.92 31.2392 22.84C32.0712 24.728 32.9032 26.44 33.7352 27.976C34.5992 29.48 35.4632 30.808 36.3272 31.96C37.1912 33.112 38.0232 34.12 38.8232 34.984C40.6792 36.968 42.5672 38.456 44.4872 39.448L41.5592 46.504ZM18.4232 40.168V32.488H26.2472V40.168H18.4232Z" fill="white"/>
<path d="M75.4862 35.992V25.432H52.8302V12.04H47.4062V4.35999H83.1662V12.04H60.5102V17.8H83.1662V35.992H75.4862ZM80.1422 46.552C77.0062 45.976 73.8542 45.048 70.6862 43.768C69.3422 43.224 67.9182 42.584 66.4142 41.848C64.9102 41.112 63.3902 40.264 61.8542 39.304C60.3182 38.344 58.7822 37.272 57.2462 36.088C55.7102 34.872 54.2542 33.512 52.8782 32.008L60.4142 28.168C61.7582 29.704 63.4542 31.176 65.5022 32.584C67.2622 33.8 69.4862 35.016 72.1742 36.232C74.8942 37.448 78.1582 38.424 81.9662 39.16L80.1422 46.552Z" fill="white"/>
<path d="M98.4651 46.504V13.816H106.097V46.504H98.4651ZM107.633 40.072C108.945 38.824 110.465 37.64 112.193 36.52C113.633 35.56 115.377 34.584 117.425 33.592C119.473 32.568 121.761 31.768 124.289 31.192V12.088H92.7531V4.45598H131.969V36.328H131.585L131.681 36.376C129.569 36.824 127.393 37.48 125.153 38.344C123.233 39.08 121.137 40.104 118.865 41.416C116.593 42.76 114.401 44.456 112.289 46.504L107.633 40.072Z" fill="white"/>
</g>
<path d="M3.168 67L7.816 56.29H7.928L12.576 67H10.224L9.426 64.984H6.01L5.17 67H3.168ZM6.724 63.276H8.754L7.76 60.77L6.724 63.276ZM14.078 67V56.696H17.158C18.194 56.696 19.076 56.85 19.804 57.158C20.532 57.466 21.1154 57.8767 21.554 58.39C22.002 58.9033 22.3287 59.4773 22.534 60.112C22.7394 60.7467 22.842 61.386 22.842 62.03C22.842 62.7953 22.702 63.486 22.422 64.102C22.1514 64.7087 21.778 65.2313 21.302 65.67C20.826 66.0993 20.2754 66.4307 19.65 66.664C19.0247 66.888 18.362 67 17.662 67H14.078ZM16.108 65.04H17.312C18.3387 65.04 19.1647 64.774 19.79 64.242C20.4247 63.71 20.742 62.926 20.742 61.89C20.742 61.218 20.63 60.672 20.406 60.252C20.1914 59.8227 19.9207 59.4913 19.594 59.258C19.2767 59.0247 18.95 58.866 18.614 58.782C18.278 58.6887 17.9934 58.642 17.76 58.642H16.108V65.04ZM30.3808 59.188C29.9888 58.9733 29.5875 58.796 29.1768 58.656C28.7755 58.516 28.3975 58.446 28.0428 58.446C27.6042 58.446 27.2588 58.5347 27.0068 58.712C26.7548 58.8893 26.6288 59.1553 26.6288 59.51C26.6288 59.7527 26.7222 59.972 26.9088 60.168C27.1048 60.3547 27.3522 60.5227 27.6508 60.672C27.9588 60.8213 28.2762 60.9567 28.6028 61.078C29.0042 61.2273 29.3915 61.4187 29.7648 61.652C30.1382 61.876 30.4462 62.1887 30.6888 62.59C30.9315 62.982 31.0528 63.5047 31.0528 64.158C31.0528 64.6807 30.9175 65.166 30.6468 65.614C30.3762 66.062 29.9795 66.426 29.4568 66.706C28.9342 66.9767 28.2902 67.112 27.5248 67.112C26.9368 67.112 26.3348 67.0233 25.7188 66.846C25.1122 66.6687 24.5382 66.3887 23.9968 66.006L24.8928 64.424C25.2475 64.6853 25.6535 64.9 26.1108 65.068C26.5682 65.236 26.9788 65.32 27.3428 65.32C27.5855 65.32 27.8282 65.2873 28.0708 65.222C28.3228 65.1473 28.5282 65.026 28.6868 64.858C28.8548 64.69 28.9388 64.4567 28.9388 64.158C28.9388 63.85 28.7895 63.584 28.4908 63.36C28.2015 63.1267 27.8515 62.9307 27.4408 62.772C27.1235 62.6507 26.7968 62.5107 26.4608 62.352C26.1248 62.1933 25.8075 62.002 25.5088 61.778C25.2195 61.5447 24.9815 61.26 24.7948 60.924C24.6175 60.5787 24.5288 60.1587 24.5288 59.664C24.5288 59.0667 24.6595 58.5487 24.9208 58.11C25.1915 57.6713 25.5695 57.326 26.0548 57.074C26.5402 56.8127 27.1002 56.668 27.7348 56.64C28.5655 56.64 29.2375 56.738 29.7508 56.934C30.2735 57.13 30.7402 57.3633 31.1508 57.634L30.3808 59.188ZM32.4109 61.862C32.4109 61.1527 32.5463 60.4807 32.8169 59.846C33.0876 59.2113 33.4609 58.6513 33.9369 58.166C34.4223 57.6713 34.9823 57.284 35.6169 57.004C36.2516 56.724 36.9329 56.584 37.6609 56.584C38.3796 56.584 39.0563 56.724 39.6909 57.004C40.3256 57.284 40.8856 57.6713 41.3709 58.166C41.8656 58.6513 42.2483 59.2113 42.5189 59.846C42.7989 60.4807 42.9389 61.1527 42.9389 61.862C42.9389 62.59 42.7989 63.2713 42.5189 63.906C42.2483 64.5407 41.8656 65.1007 41.3709 65.586C40.8856 66.062 40.3256 66.4353 39.6909 66.706C39.0563 66.9767 38.3796 67.112 37.6609 67.112C36.9329 67.112 36.2516 66.9767 35.6169 66.706C34.9823 66.4353 34.4223 66.062 33.9369 65.586C33.4609 65.1007 33.0876 64.5407 32.8169 63.906C32.5463 63.2713 32.4109 62.59 32.4109 61.862ZM34.5109 61.862C34.5109 62.4687 34.6509 63.024 34.9309 63.528C35.2203 64.0227 35.6076 64.4193 36.0929 64.718C36.5783 65.0073 37.1243 65.152 37.7309 65.152C38.3189 65.152 38.8463 65.0073 39.3129 64.718C39.7889 64.4193 40.1623 64.0227 40.4329 63.528C40.7036 63.024 40.8389 62.4687 40.8389 61.862C40.8389 61.2367 40.6989 60.6767 40.4189 60.182C40.1389 59.678 39.7609 59.2813 39.2849 58.992C38.8089 58.6933 38.2723 58.544 37.6749 58.544C37.0776 58.544 36.5409 58.6933 36.0649 58.992C35.5889 59.2813 35.2109 59.678 34.9309 60.182C34.6509 60.6767 34.5109 61.2367 34.5109 61.862ZM54.1888 67.42L46.9788 60.91L47.0208 67H44.9628V56.29H45.0468L52.2428 62.898L52.2008 56.696H54.2448V67.42H54.1888ZM66.9531 59.188C66.5611 58.9733 66.1598 58.796 65.7491 58.656C65.3478 58.516 64.9698 58.446 64.6151 58.446C64.1764 58.446 63.8311 58.5347 63.5791 58.712C63.3271 58.8893 63.2011 59.1553 63.2011 59.51C63.2011 59.7527 63.2944 59.972 63.4811 60.168C63.6771 60.3547 63.9244 60.5227 64.2231 60.672C64.5311 60.8213 64.8484 60.9567 65.1751 61.078C65.5764 61.2273 65.9638 61.4187 66.3371 61.652C66.7104 61.876 67.0184 62.1887 67.2611 62.59C67.5038 62.982 67.6251 63.5047 67.6251 64.158C67.6251 64.6807 67.4898 65.166 67.2191 65.614C66.9484 66.062 66.5518 66.426 66.0291 66.706C65.5064 66.9767 64.8624 67.112 64.0971 67.112C63.5091 67.112 62.9071 67.0233 62.2911 66.846C61.6844 66.6687 61.1104 66.3887 60.5691 66.006L61.4651 64.424C61.8198 64.6853 62.2258 64.9 62.6831 65.068C63.1404 65.236 63.5511 65.32 63.9151 65.32C64.1578 65.32 64.4004 65.2873 64.6431 65.222C64.8951 65.1473 65.1004 65.026 65.2591 64.858C65.4271 64.69 65.5111 64.4567 65.5111 64.158C65.5111 63.85 65.3618 63.584 65.0631 63.36C64.7738 63.1267 64.4238 62.9307 64.0131 62.772C63.6958 62.6507 63.3691 62.5107 63.0331 62.352C62.6971 62.1933 62.3798 62.002 62.0811 61.778C61.7918 61.5447 61.5538 61.26 61.3671 60.924C61.1898 60.5787 61.1011 60.1587 61.1011 59.664C61.1011 59.0667 61.2318 58.5487 61.4931 58.11C61.7638 57.6713 62.1418 57.326 62.6271 57.074C63.1124 56.8127 63.6724 56.668 64.3071 56.64C65.1378 56.64 65.8098 56.738 66.3231 56.934C66.8458 57.13 67.3124 57.3633 67.7231 57.634L66.9531 59.188ZM68.4512 67L73.0992 56.29H73.2112L77.8592 67H75.5072L74.7092 64.984H71.2932L70.4532 67H68.4512ZM72.0072 63.276H74.0372L73.0432 60.77L72.0072 63.276ZM88.5873 67.42L81.3773 60.91L81.4193 67H79.3613V56.29H79.4453L86.6413 62.898L86.5993 56.696H88.6433V67.42H88.5873ZM95.8495 67V56.696H98.9295C99.9655 56.696 100.848 56.85 101.576 57.158C102.304 57.466 102.887 57.8767 103.326 58.39C103.774 58.9033 104.1 59.4773 104.306 60.112C104.511 60.7467 104.614 61.386 104.614 62.03C104.614 62.7953 104.474 63.486 104.194 64.102C103.923 64.7087 103.55 65.2313 103.074 65.67C102.598 66.0993 102.047 66.4307 101.422 66.664C100.796 66.888 100.134 67 99.4335 67H95.8495ZM97.8795 65.04H99.0835C100.11 65.04 100.936 64.774 101.562 64.242C102.196 63.71 102.514 62.926 102.514 61.89C102.514 61.218 102.402 60.672 102.178 60.252C101.963 59.8227 101.692 59.4913 101.366 59.258C101.048 59.0247 100.722 58.866 100.386 58.782C100.05 58.6887 99.7649 58.642 99.5315 58.642H97.8795V65.04ZM106.65 56.696H108.68V67H106.65V56.696ZM110.178 67L114.826 56.29H114.938L119.586 67H117.234L116.436 64.984H113.02L112.18 67H110.178ZM113.734 63.276H115.764L114.77 60.77L113.734 63.276ZM126.59 59.188C126.198 58.9733 125.796 58.796 125.386 58.656C124.984 58.516 124.606 58.446 124.252 58.446C123.813 58.446 123.468 58.5347 123.216 58.712C122.964 58.8893 122.838 59.1553 122.838 59.51C122.838 59.7527 122.931 59.972 123.118 60.168C123.314 60.3547 123.561 60.5227 123.86 60.672C124.168 60.8213 124.485 60.9567 124.812 61.078C125.213 61.2273 125.6 61.4187 125.974 61.652C126.347 61.876 126.655 62.1887 126.898 62.59C127.14 62.982 127.262 63.5047 127.262 64.158C127.262 64.6807 127.126 65.166 126.856 65.614C126.585 66.062 126.188 66.426 125.666 66.706C125.143 66.9767 124.499 67.112 123.734 67.112C123.146 67.112 122.544 67.0233 121.928 66.846C121.321 66.6687 120.747 66.3887 120.206 66.006L121.102 64.424C121.456 64.6853 121.862 64.9 122.32 65.068C122.777 65.236 123.188 65.32 123.552 65.32C123.794 65.32 124.037 65.2873 124.28 65.222C124.532 65.1473 124.737 65.026 124.896 64.858C125.064 64.69 125.148 64.4567 125.148 64.158C125.148 63.85 124.998 63.584 124.7 63.36C124.41 63.1267 124.06 62.9307 123.65 62.772C123.332 62.6507 123.006 62.5107 122.67 62.352C122.334 62.1933 122.016 62.002 121.718 61.778C121.428 61.5447 121.19 61.26 121.004 60.924C120.826 60.5787 120.738 60.1587 120.738 59.664C120.738 59.0667 120.868 58.5487 121.13 58.11C121.4 57.6713 121.778 57.326 122.264 57.074C122.749 56.8127 123.309 56.668 123.944 56.64C124.774 56.64 125.446 56.738 125.96 56.934C126.482 57.13 126.949 57.3633 127.36 57.634L126.59 59.188Z" fill="black"/>
</svg>
